<?xml version="1.0" encoding="UTF-8"?>
<svg width="6px" height="10px" viewBox="0 0 6 10" version="1.1" xmlns="http://www.w3.org/2000/svg" xmlns:xlink="http://www.w3.org/1999/xlink">
    <!-- Generator: Sketch 43.2 (39069) - http://www.bohemiancoding.com/sketch -->
    <title>drag-handle</title>
    <desc>Created with Sketch.</desc>
    <defs></defs>
    <g id="Page-1" stroke="none" stroke-width="1" fill="none" fill-rule="evenodd">
        <g id="drag-handle" fill="#FFFFFF">
            <path d="M-5.55247038e-17,0.505 C-5.55247038e-17,0.226 0.214,0 0.505,0 L1.495,0 C1.774,0 2,0.214 2,0.505 L2,1.495 C2.00218448,1.62959212 1.94968105,1.75931398 1.85449752,1.85449752 C1.75931398,1.94968105 1.62959212,2.00218448 1.495,2 L0.505,2 C0.37040788,2.00218448 0.240686017,1.94968105 0.145502481,1.85449752 C0.0503189459,1.75931398 -0.00218448446,1.62959212 -5.55247038e-17,1.495 L-5.55247038e-17,0.505 Z M4,0.505 C4,0.226 4.214,0 4.505,0 L5.495,0 C5.774,0 6,0.214 6,0.505 L6,1.495 C6.00218448,1.62959212 5.94968105,1.75931398 5.85449752,1.85449752 C5.75931398,1.94968105 5.62959212,2.00218448 5.495,2 L4.505,2 C4.37040788,2.00218448 4.24068602,1.94968105 4.14550248,1.85449752 C4.05031895,1.75931398 3.99781552,1.62959212 4,1.495 L4,0.505 Z M-5.55247038e-17,4.505 C-5.55247038e-17,4.226 0.214,4 0.505,4 L1.495,4 C1.774,4 2,4.214 2,4.505 L2,5.495 C2.00218448,5.62959212 1.94968105,5.75931398 1.85449752,5.85449752 C1.75931398,5.94968105 1.62959212,6.00218448 1.495,6 L0.505,6 C0.37040788,6.00218448 0.240686017,5.94968105 0.145502481,5.85449752 C0.0503189459,5.75931398 -0.00218448446,5.62959212 -5.55247038e-17,5.495 L-5.55247038e-17,4.505 L-5.55247038e-17,4.505 Z M4,4.505 C4,4.226 4.214,4 4.505,4 L5.495,4 C5.774,4 6,4.214 6,4.505 L6,5.495 C6.00218448,5.62959212 5.94968105,5.75931398 5.85449752,5.85449752 C5.75931398,5.94968105 5.62959212,6.00218448 5.495,6 L4.505,6 C4.37040788,6.00218448 4.24068602,5.94968105 4.14550248,5.85449752 C4.05031895,5.75931398 3.99781552,5.62959212 4,5.495 L4,4.505 L4,4.505 Z M-5.55247038e-17,8.505 C-5.55247038e-17,8.226 0.214,8 0.505,8 L1.495,8 C1.774,8 2,8.214 2,8.505 L2,9.495 C2.00218448,9.62959212 1.94968105,9.75931398 1.85449752,9.85449752 C1.75931398,9.94968105 1.62959212,10.0021845 1.495,10 L0.505,10 C0.37040788,10.0021845 0.240686017,9.94968105 0.145502481,9.85449752 C0.0503189459,9.75931398 -0.00218448446,9.62959212 -5.55247038e-17,9.495 L-5.55247038e-17,8.505 Z M4,8.505 C4,8.226 4.214,8 4.505,8 L5.495,8 C5.774,8 6,8.214 6,8.505 L6,9.495 C6.00218448,9.62959212 5.94968105,9.75931398 5.85449752,9.85449752 C5.75931398,9.94968105 5.62959212,10.0021845 5.495,10 L4.505,10 C4.37040788,10.0021845 4.24068602,9.94968105 4.14550248,9.85449752 C4.05031895,9.75931398 3.99781552,9.62959212 4,9.495 L4,8.505 Z" id="Shape"></path>
        </g>
    </g>
</svg>